<?xml version="1.0" encoding="UTF-8"?>
<svg version="1.1" xmlns="http://www.w3.org/2000/svg" width="240" height="108">
<path d="M0 0 C1.7015625 0.2165625 1.7015625 0.2165625 3.4375 0.4375 C5.8669516 4.0816774 5.59929575 6.14991272 5.4375 10.4375 C8.7375 10.4375 12.0375 10.4375 15.4375 10.4375 C15.375625 9.344375 15.31375 8.25125 15.25 7.125 C15.4375 3.4375 15.4375 3.4375 16.5625 1.5 C19.32730433 -0.06672245 21.31938517 0.04773565 24.4375 0.4375 C26.3125 1.5 26.3125 1.5 27.4375 3.4375 C27.625 7.125 27.625 7.125 27.4375 10.4375 C30.7375 10.4375 34.0375 10.4375 37.4375 10.4375 C37.39625 9.344375 37.355 8.25125 37.3125 7.125 C37.4375 3.4375 37.4375 3.4375 39.4375 0.4375 C42.875 -0 42.875 -0 46.4375 0.4375 C48.375 2.0625 48.375 2.0625 49.4375 4.4375 C49.47967424 6.43705528 49.48406272 8.4380421 49.4375 10.4375 C50.61828125 10.40269531 51.7990625 10.36789062 53.015625 10.33203125 C54.57290242 10.30388768 56.13019525 10.27658813 57.6875 10.25 C58.46480469 10.22486328 59.24210937 10.19972656 60.04296875 10.17382812 C60.79707031 10.16416016 61.55117187 10.15449219 62.328125 10.14453125 C63.36501465 10.12096558 63.36501465 10.12096558 64.42285156 10.09692383 C67.28135163 10.58015306 68.40924178 11.33630306 70.4375 13.4375 C70.84018163 16.21431933 70.98454359 18.59883055 70.95507812 21.37792969 C70.9620874 22.18642365 70.96909668 22.9949176 70.97631836 23.82791138 C70.99394748 26.50541369 70.98225423 29.18186157 70.96875 31.859375 C70.97144456 33.72162071 70.97532669 35.58386506 70.98034668 37.44610596 C70.98624925 41.3535295 70.97765834 45.26058765 70.95898438 49.16796875 C70.93625756 54.16604284 70.94927312 59.1632548 70.97327423 64.16129684 C70.98776583 68.00989205 70.98310974 71.85828481 70.97276306 75.70688629 C70.97010177 77.5488012 70.97334446 79.39073471 70.98268127 81.23262787 C70.99289526 83.8154065 70.97727632 86.39681498 70.95507812 88.97949219 C70.96317505 89.73507416 70.97127197 90.49065613 70.97961426 91.26913452 C70.89723101 96.47009173 69.87598956 100.42697229 66.4375 104.4375 C61.90389222 108.24515276 57.67404045 108.94079121 51.77734375 108.95507812 C51.04629425 108.9620874 50.31524475 108.96909668 49.56204224 108.97631836 C47.16596528 108.99380132 44.77108717 108.9823113 42.375 108.96875 C40.697833 108.97144773 39.02066753 108.97533249 37.34350586 108.98034668 C33.83659912 108.98622856 30.33010122 108.97772142 26.82324219 108.95898438 C22.34091138 108.93619528 17.85953875 108.94932545 13.37724304 108.97327423 C9.91639053 108.98776791 6.45576306 108.98310996 2.99490356 108.97276306 C1.34278244 108.97010562 -0.3093595 108.97333079 -1.9614563 108.98268127 C-4.27563142 108.99290641 -6.58828146 108.97726527 -8.90234375 108.95507812 C-10.21581787 108.95189575 -11.52929199 108.94871338 -12.88256836 108.94543457 C-18.69602652 108.14301304 -22.10047709 106.09257145 -25.96765137 101.71476746 C-27.90758274 97.72838667 -28.12579756 94.34072839 -28.08007812 90.0012207 C-28.0870874 89.17610992 -28.09409668 88.35099915 -28.10131836 87.50088501 C-28.11884879 84.78800286 -28.10729683 82.076173 -28.09375 79.36328125 C-28.09644557 77.47332052 -28.10032854 75.58336114 -28.10534668 73.69340515 C-28.11123434 69.74004868 -28.1026995 65.78705451 -28.08398438 61.83374023 C-28.06114829 56.76249923 -28.07435188 51.69210285 -28.09827423 46.62089252 C-28.11271204 42.72185369 -28.10813632 38.82301599 -28.09776306 34.92397118 C-28.09509262 33.05363045 -28.09837668 31.18327153 -28.10768127 29.31295204 C-28.11781897 26.7033389 -28.10238793 24.09510577 -28.08007812 21.4855957 C-28.08817505 20.71099503 -28.09627197 19.93639435 -28.10461426 19.13832092 C-28.02170897 13.91484357 -28.02170897 13.91484357 -25.65606689 11.45578003 C-23.37314969 10.3454028 -21.97717038 10.08716658 -19.453125 10.14453125 C-18.32197266 10.1590332 -18.32197266 10.1590332 -17.16796875 10.17382812 C-16.39066406 10.19896484 -15.61335937 10.22410156 -14.8125 10.25 C-14.01972656 10.26353516 -13.22695312 10.27707031 -12.41015625 10.29101562 C-10.46064436 10.32624777 -8.51148374 10.38005179 -6.5625 10.4375 C-6.58441406 9.49648437 -6.60632813 8.55546875 -6.62890625 7.5859375 C-6.5625 4.4375 -6.5625 4.4375 -5.5 2.0625 C-3.5625 0.4375 -3.5625 0.4375 0 0 Z M-16.5625 22.4375 C-16.65517747 31.62559939 -16.72625324 40.81353791 -16.76974869 50.00200272 C-16.79062433 54.26859292 -16.81894109 58.53486336 -16.86425781 62.80126953 C-16.9077171 66.91856784 -16.93163728 71.03555857 -16.94200897 75.15306854 C-16.94940027 76.7239847 -16.96383388 78.29488402 -16.98542023 79.86566925 C-17.01445682 82.06608969 -17.01845612 84.26523913 -17.01660156 86.46582031 C-17.02548401 87.71824524 -17.03436646 88.97067017 -17.04351807 90.26104736 C-16.78875077 93.47002549 -16.78875077 93.47002549 -14.94866943 95.84088135 C-11.78800141 97.95572762 -9.72204083 97.9449113 -5.9296875 97.95507812 C-5.27228577 97.9620874 -4.61488403 97.96909668 -3.93756104 97.97631836 C-1.77044083 97.99388431 0.39536716 97.98228235 2.5625 97.96875 C4.07177989 97.97144536 5.58105808 97.97532815 7.09033203 97.98034668 C10.25114499 97.98623976 13.41150534 97.9776855 16.57226562 97.95898438 C20.62118557 97.93619419 24.66904498 97.9493184 28.71792603 97.97327423 C31.83382133 97.98773778 34.94946574 97.98312383 38.06536865 97.97276306 C39.5580864 97.97009728 41.05082704 97.97336038 42.54351807 97.98268127 C44.63118704 97.99285695 46.71714574 97.97733569 48.8046875 97.95507812 C49.99175293 97.95189575 51.17881836 97.94871338 52.40185547 97.94543457 C55.48311097 97.64380061 55.48311097 97.64380061 57.82366943 95.84088135 C60.01477166 92.57780384 59.91938386 90.38312367 59.89160156 86.46582031 C59.89218567 85.7727327 59.89276978 85.07964508 59.89337158 84.36555481 C59.89059169 82.08172985 59.85950707 79.79922103 59.828125 77.515625 C59.8206622 75.92951165 59.81496945 74.34338906 59.81097412 72.75726318 C59.79572065 68.58789497 59.75644187 64.41908644 59.7121582 60.24993896 C59.67119898 55.99352591 59.65296175 51.73702219 59.6328125 47.48046875 C59.58994683 39.132556 59.5216996 30.78509767 59.4375 22.4375 C56.1375 22.4375 52.8375 22.4375 49.4375 22.4375 C48.7775 25.4075 48.1175 28.3775 47.4375 31.4375 C44.625 32.0625 44.625 32.0625 41.4375 32.4375 C38.4375 30.4375 38.4375 30.4375 37.92578125 28.4921875 C37.76302083 26.47395833 37.60026042 24.45572917 37.4375 22.4375 C34.1375 22.4375 30.8375 22.4375 27.4375 22.4375 C26.7775 25.4075 26.1175 28.3775 25.4375 31.4375 C20.02364052 32.76088787 20.02364052 32.76088787 17.625 31.4375 C15.91135538 28.5513617 15.74913769 25.74085954 15.4375 22.4375 C12.1375 22.4375 8.8375 22.4375 5.4375 22.4375 C5.334375 23.71625 5.23125 24.995 5.125 26.3125 C4.94921875 28.4921875 4.94921875 28.4921875 4.4375 30.4375 C1.4375 32.4375 1.4375 32.4375 -1.75 32.0625 C-3.1421875 31.753125 -3.1421875 31.753125 -4.5625 31.4375 C-5.2225 28.4675 -5.8825 25.4975 -6.5625 22.4375 C-9.8625 22.4375 -13.1625 22.4375 -16.5625 22.4375 Z " fill="#102B56" transform="translate(27.5625,-0.4375)"/>
<path d="M0 0 C11.54496067 0 17.45943385 3.89525915 25.70703125 11.6953125 C28.98862668 14.99367929 32.02234954 18.42681945 35 22 C36.53412325 23.83756458 38.0715289 25.67210579 39.61572266 27.5012207 C40.69167199 28.77599724 41.76183535 30.05568353 42.82568359 31.34057617 C45.83228176 34.96767653 45.83228176 34.96767653 50 37 C48.3938009 27.62285671 45.75378991 19.0773001 42.33764648 10.22338867 C42.03673096 9.44326416 41.73581543 8.66313965 41.42578125 7.859375 C41.15161377 7.16295898 40.87744629 6.46654297 40.5949707 5.74902344 C40 4 40 4 40 2 C40.66 2 41.32 2 42 2 C42.7425 2.969375 43.485 3.93875 44.25 4.9375 C46.2201936 7.38285794 46.9064465 7.96686647 50 9.0625 C53.54449002 8.98865646 55.07435478 7.89771582 58 6 C58.99 6.33 59.98 6.66 61 7 C61.02470469 12.49926424 61.04286223 17.99849622 61.05493164 23.49780273 C61.05996279 25.36890221 61.06678835 27.23999775 61.07543945 29.11108398 C61.08755829 31.79932628 61.09324047 34.48751664 61.09765625 37.17578125 C61.10281754 38.01337479 61.10797882 38.85096832 61.11329651 39.71394348 C61.11362064 43.06375742 61.06684515 45.79946456 60 49 C49.90075427 50.0604208 49.90075427 50.0604208 45.7734375 47.7578125 C43.72904331 45.93216008 41.87015927 44.00347756 40 42 C38.45073252 40.56887423 36.88733441 39.15294237 35.3125 37.75 C34.47847656 36.99976563 33.64445312 36.24953125 32.78515625 35.4765625 C29.62702206 32.66834781 26.45316592 29.88169175 23.25 27.125 C22.71930908 26.66061523 22.18861816 26.19623047 21.6418457 25.71777344 C18.30302815 22.86739805 14.99662687 20.80685826 11 19 C9.86044138 25.32589627 9.8857363 31.52278338 9.9375 37.9375 C9.94201172 39.00291016 9.94652344 40.06832031 9.95117188 41.16601562 C9.96288213 43.77740291 9.97928276 46.38867124 10 49 C9.39671875 48.67257813 8.7934375 48.34515625 8.171875 48.0078125 C5.62452701 46.82576973 3.77587962 46.84578447 1 47 C0.67 47.66 0.34 48.32 0 49 C0 32.83 0 16.66 0 0 Z " fill="#102B56" transform="translate(19,38)"/>
<path d="M0 0 C2.85574601 1.33788101 3.86056686 2.48616606 6 5 C6.5 8.6875 6.5 8.6875 6 12 C2.69756694 15.30243306 -1.44971086 14.64997776 -6 15 C-2.7 15 0.6 15 4 15 C4.33 16.98 4.66 18.96 5 21 C0.66221536 23.4534981 -3.10629729 23.68698426 -8 23 C-11.46478519 21.29910545 -13.36368391 19.99597301 -15.4375 16.75 C-16.21357066 12.95587675 -16.18359667 9.70810349 -15 6 C-10.60767667 0.70668727 -6.89336498 -1.11059769 0 0 Z M-5 7 C-5.99 8.485 -5.99 8.485 -7 10 C-5.35 10 -3.7 10 -2 10 C-2.33 9.01 -2.66 8.02 -3 7 C-3.66 7 -4.32 7 -5 7 Z " fill="#102B56" transform="translate(167,67)"/>
<path d="M0 0 C1.21880859 -0.01224609 2.43761719 -0.02449219 3.69335938 -0.03710938 C5.43649414 -0.04000977 5.43649414 -0.04000977 7.21484375 -0.04296875 C8.28726318 -0.04707764 9.35968262 -0.05118652 10.46459961 -0.05541992 C13.0625 0.1875 13.0625 0.1875 15.0625 2.1875 C14.6875 4.8125 14.6875 4.8125 14.0625 7.1875 C10.7625 7.1875 7.4625 7.1875 4.0625 7.1875 C4.07410156 8.76402344 4.08570313 10.34054688 4.09765625 11.96484375 C4.10703243 14.01822799 4.11613282 16.0716135 4.125 18.125 C4.13337891 19.16591797 4.14175781 20.20683594 4.15039062 21.27929688 C4.15522461 22.76333008 4.15522461 22.76333008 4.16015625 24.27734375 C4.16801147 25.65200806 4.16801147 25.65200806 4.17602539 27.05444336 C4.0625 29.1875 4.0625 29.1875 3.0625 30.1875 C0.0625 30.3125 0.0625 30.3125 -2.9375 30.1875 C-3.9375 29.1875 -3.9375 29.1875 -4.05102539 27.05444336 C-4.04578857 26.13800049 -4.04055176 25.22155762 -4.03515625 24.27734375 C-4.03193359 23.28798828 -4.02871094 22.29863281 -4.02539062 21.27929688 C-4.01701172 20.23837891 -4.00863281 19.19746094 -4 18.125 C-3.99548828 17.08021484 -3.99097656 16.03542969 -3.98632812 14.95898438 C-3.97449913 12.3684334 -3.95801689 9.77799441 -3.9375 7.1875 C-4.89462891 7.20490234 -4.89462891 7.20490234 -5.87109375 7.22265625 C-7.11052734 7.23619141 -7.11052734 7.23619141 -8.375 7.25 C-9.61056641 7.26740234 -9.61056641 7.26740234 -10.87109375 7.28515625 C-12.9375 7.1875 -12.9375 7.1875 -13.9375 6.1875 C-14.0625 3.6875 -14.0625 3.6875 -13.9375 1.1875 C-11.29209403 -1.45790597 -3.56345815 0.00187847 0 0 Z " fill="#102B57" transform="translate(201.9375,58.8125)"/>
<path d="M0 0 C3.02508145 1.73602105 5.41790069 3.83580137 7 7 C7.6326744 11.51910283 7.77294479 15.66253178 5.0625 19.5 C1.61018468 22.31821658 -0.41176151 23.02371308 -4.78125 23.2421875 C-8.31562734 22.85639279 -10.37656412 21.30350467 -13 19 C-15.68121076 14.97818385 -15.81344335 11.72763609 -15 7 C-11.55662616 0.81728787 -6.92073953 -1.18127651 0 0 Z M-6 8 C-7.29633621 9.06645115 -7.29633621 9.06645115 -7.0625 11.5625 C-7.041875 12.366875 -7.02125 13.17125 -7 14 C-3.95086772 15.01111093 -3.95086772 15.01111093 -1 14 C-1 12.35 -1 10.7 -1 9 C-2.65614657 8.61781233 -4.32457024 8.28604898 -6 8 Z " fill="#102B56" transform="translate(119,67)"/>
<path d="M0 0 C1 1 1 1 1.0625 4.0625 C1.041875 5.031875 1.02125 6.00125 1 7 C1.804375 6.979375 2.60875 6.95875 3.4375 6.9375 C6 7 6 7 7 8 C7.125 10.5 7.125 10.5 7 13 C6 14 6 14 3.4375 14.0625 C2.633125 14.041875 1.82875 14.02125 1 14 C1 16.31 1 18.62 1 21 C2.65 21.33 4.3 21.66 6 22 C6.042721 23.66611905 6.04063832 25.33382885 6 27 C5 28 5 28 1.1875 28.3125 C-1.69591657 28.24520302 -2.91279116 28.04796486 -5.5 26.625 C-7.81720603 22.56988944 -7.3135704 18.56419136 -7 14 C-8.32 13.67 -9.64 13.34 -11 13 C-11 11.35 -11 9.7 -11 8 C-9.68 7.67 -8.36 7.34 -7 7 C-7 4.69 -7 2.38 -7 0 C-4.31633121 -1.3418344 -2.84719317 -0.73004953 0 0 Z " fill="#102B56" transform="translate(141,61)"/>
<path d="M0 0 C2.5625 -0.25 2.5625 -0.25 5 0 C6 1 6 1 6.11352539 3.77563477 C6.10828857 4.98533936 6.10305176 6.19504395 6.09765625 7.44140625 C6.09443359 8.74658203 6.09121094 10.05175781 6.08789062 11.39648438 C6.07953401 12.7851569 6.07106905 14.17382877 6.0625 15.5625 C6.05748666 16.95507656 6.05292347 18.34765481 6.04882812 19.74023438 C6.03699434 23.1601987 6.0205088 26.58007844 6 30 C3.69 30 1.38 30 -1 30 C-3.10978822 25.78042357 -2.18492875 20.19845541 -2.1875 15.5625 C-2.19974609 14.40427734 -2.21199219 13.24605469 -2.22460938 12.05273438 C-2.22654297 10.94349609 -2.22847656 9.83425781 -2.23046875 8.69140625 C-2.23457764 7.67248291 -2.23868652 6.65355957 -2.24291992 5.60375977 C-2 3 -2 3 0 0 Z " fill="#102B57" transform="translate(180,59)"/>
</svg>
