<svg width="139" height="153" viewBox="0 0 139 153" fill="none" xmlns="http://www.w3.org/2000/svg">
<path d="M35.6187 55.0112H26.9312C26.9312 52.4326 26.9312 121.197 26.9312 122.916C31.275 114.32 40.8312 120.887 40.8312 122.916C40.8312 124.945 37.3562 79.0786 42.5687 79.0786C46.0437 75.6404 94.3832 122.916 96.4312 122.916H111.2C113.248 122.916 114.675 60.1685 111.2 62.7472C103.381 70.4928 93.825 72.2022 83.4 55.0112C82.317 51.1993 101.644 99.7079 99.0375 106.584C95.5625 118.618 59.075 55.0112 35.6187 55.0112ZM131.278 15.3H108.111V7.65C108.111 5.62109 107.298 3.67529 105.849 2.24063C104.401 0.805979 102.437 0 100.389 0C98.3408 0 96.3767 0.805979 94.9285 2.24063C93.4803 3.67529 92.6667 5.62109 92.6667 7.65V15.3H77.2222V7.65C77.2222 5.62109 76.4086 3.67529 74.9604 2.24063C73.5122 0.805979 71.5481 0 69.5 0C67.4519 0 65.4878 0.805979 64.0396 2.24063C62.5914 3.67529 61.7778 5.62109 61.7778 7.65V15.3H46.3333V7.65C46.3333 5.62109 45.5197 3.67529 44.0715 2.24063C42.6233 0.805979 40.6592 0 38.6111 0C36.5631 0 34.5989 0.805979 33.1507 2.24063C31.7025 3.67529 30.8889 5.62109 30.8889 7.65V15.3H7.72222C5.67416 15.3 3.70998 16.106 2.26179 17.5406C0.813589 18.9753 0 20.9211 0 22.95V130.05C0 136.137 2.44077 141.974 6.78536 146.278C11.13 150.582 17.0225 153 23.1667 153H115.833C121.978 153 127.87 150.582 132.215 146.278C136.559 141.974 139 136.137 139 130.05V22.95C139 20.9211 138.186 18.9753 136.738 17.5406C135.29 16.106 133.326 15.3 131.278 15.3ZM123.556 130.05C123.556 132.079 122.742 134.025 121.294 135.459C119.846 136.894 117.881 137.7 115.833 137.7H23.1667C21.1186 137.7 19.1544 136.894 17.7062 135.459C16.258 134.025 15.4444 132.079 15.4444 130.05V30.6H30.8889V38.25C30.8889 40.2789 31.7025 42.2247 33.1507 43.6594C34.5989 45.094 36.5631 45.9 38.6111 45.9C40.6592 45.9 42.6233 45.094 44.0715 43.6594C45.5197 42.2247 46.3333 40.2789 46.3333 38.25V30.6H61.7778V38.25C61.7778 40.2789 62.5914 42.2247 64.0396 43.6594C65.4878 45.094 67.4519 45.9 69.5 45.9C71.5481 45.9 73.5122 45.094 74.9604 43.6594C76.4086 42.2247 77.2222 40.2789 77.2222 38.25V30.6H92.6667V38.25C92.6667 40.2789 93.4803 42.2247 94.9285 43.6594C96.3767 45.094 98.3408 45.9 100.389 45.9C102.437 45.9 104.401 45.094 105.849 43.6594C107.298 42.2247 108.111 40.2789 108.111 38.25V30.6H123.556V130.05Z" fill="#102C57"/>
</svg>
